<?xml version="1.0" encoding="utf-8"?>
<svg version="1.1" width="503" height="202" viewBox="0 0 503 202"
	xmlns="http://www.w3.org/2000/svg"
	xmlns:xlink="http://www.w3.org/1999/xlink"
	xml:space="preserve"
><title lang="ru">Иллюстрация организации стека</title><defs>
	<style type="text/css">
		rect{
			fill: #f7f7f7;
			stroke: #b2b2b2;
		}
		path, line{
			fill: none;
			stroke: #5a5a5a;
		}
		text{
			fill: #5a5a5a;
			font-family: Helvetica, Arial, sans-serif;
			font-size: 12px;
			text-anchor: middle;
		}
		.arrow{
			marker-end: url(#arrowhead);
			stroke-linecap: square;
			stroke-miterlimit: 10;
		}
	</style>
	<marker id="arrowhead"
		viewBox="0 0 7 5"
		markerWidth="7"
		markerHeight="5"
		orient="auto"
		refX="0"
		refY="2.5"
	><polygon fill="#5a5a5a" points="0 5 7 2.5 0 0 0 5"/></marker>
</defs>
<path class="arrow" d="M35.582,164.2608c-17.7538-21.656-10.6705-46.5387,6.4023-62.6125C59.8696,84.8095,85.5787,70.8931,119.5,79.5"/>
<line class="arrow" x1="125.5" y1="69.5"    x2="63.6875"  y2="26.9084"/>
<line class="arrow" x1="222.5" y1="99.2872" x2="249.9454" y2="83.7749"/>
<line class="arrow" x1="352.5" y1="99.2872" x2="379.9454" y2="83.7749"/>
<rect x="35.5" y="139.5" width="97" height="19"/>
<rect x="35.5" y="158.5" width="97" height="19"/>
<rect x="125.5" y="69.5" width="97" height="19"/>
<rect x="125.5" y="88.5" width="97" height="19"/>
<rect x="255.5" y="69.5" width="97" height="19"/>
<rect x="255.5" y="88.5" width="97" height="19"/>
<rect x="385.5" y="69.5" width="97" height="19"/>
<rect x="385.5" y="88.5" width="97" height="19"/>
<text lang="en" style="font-size: 14px" transform="translate(31.5924 107.1308) rotate(-50.825)">push</text>
<text lang="en" style="font-size: 14px" transform="translate(90.6272 37.1774) rotate(-325.431)">pop</text>
<text lang="ru" x="83" y="153.7749">Информация</text><text lang="ru" x="84"  y="171.3193">След. элемент</text>
<text lang="ru" x="173" y="83.7749">Информация</text><text lang="ru" x="174" y="101.3193">След. элемент</text>
<text lang="ru" x="303" y="83.7749">Информация</text><text lang="ru" x="304" y="101.3193">След. элемент</text>
<text lang="ru" x="434" y="83.7749">Информация</text><text lang="ru" x="435" y="101.3193">След. элемент</text>
</svg>
